<svg width="629" height="204" viewBox="0 0 629 204" fill="none" xmlns="http://www.w3.org/2000/svg">
<path d="M19.5089 72.96H50.1369C57.7422 72.96 63.9836 74.4893 68.8609 77.548C73.7383 80.524 77.3756 84.5747 79.7729 89.7C82.1702 94.8253 83.3689 100.612 83.3689 107.06C83.3689 114.831 82.0463 122.023 79.4009 128.636C76.8382 135.167 73.2009 140.871 68.4889 145.748C63.8596 150.543 58.3622 154.304 51.9969 157.032C45.7142 159.677 38.8529 161 31.4129 161H0.784912L19.5089 72.96ZM34.5129 145.996C39.3076 145.996 43.6062 145.045 47.4089 143.144C51.2942 141.16 54.6009 138.473 57.3289 135.084C60.0569 131.612 62.1236 127.685 63.5289 123.304C65.0169 118.923 65.7609 114.335 65.7609 109.54C65.7609 105.241 65.0583 101.48 63.6529 98.256C62.2476 95.032 60.1396 92.5107 57.3289 90.692C54.6009 88.8733 51.1289 87.964 46.9129 87.964H33.2729L20.9969 145.996H34.5129Z" fill="#111111"/>
<path d="M105.364 73.084H122.352L103.628 161H86.6404L105.364 73.084Z" fill="#111111"/>
<path d="M150.892 161.992C144.692 161.992 138.698 161 132.912 159.016C127.125 156.949 122.206 154.139 118.156 150.584L128.82 135.828C129.316 136.572 130.308 137.564 131.796 138.804C133.284 139.961 135.185 141.16 137.5 142.4C139.814 143.557 142.418 144.549 145.312 145.376C148.205 146.203 151.264 146.616 154.488 146.616C157.794 146.616 160.522 146.203 162.672 145.376C164.904 144.467 166.557 143.227 167.632 141.656C168.706 140.003 169.244 138.101 169.244 135.952C169.244 133.72 168.417 131.943 166.764 130.62C165.193 129.297 163.002 128.14 160.192 127.148C157.381 126.073 154.157 124.957 150.52 123.8C146.386 122.477 142.914 120.989 140.104 119.336C137.293 117.683 135.144 115.699 133.656 113.384C132.25 110.987 131.548 108.135 131.548 104.828C131.548 99.7027 132.54 95.1147 134.524 91.064C136.59 87.0133 139.36 83.624 142.832 80.896C146.386 78.0853 150.396 75.9773 154.86 74.572C159.324 73.084 163.994 72.34 168.872 72.34C172.757 72.34 176.353 72.7947 179.66 73.704C183.049 74.6133 186.108 75.812 188.836 77.3C191.646 78.788 194.085 80.4 196.152 82.136L185.612 96.024C185.364 95.4453 184.62 94.66 183.38 93.668C182.14 92.676 180.569 91.7253 178.668 90.816C176.766 89.9067 174.658 89.1213 172.344 88.46C170.029 87.716 167.632 87.344 165.152 87.344C161.928 87.344 159.158 87.84 156.844 88.832C154.612 89.824 152.958 91.188 151.884 92.924C150.809 94.66 150.272 96.7267 150.272 99.124C150.272 100.943 150.892 102.472 152.132 103.712C153.454 104.952 155.314 106.027 157.712 106.936C160.109 107.763 163.044 108.713 166.516 109.788C170.897 111.028 174.7 112.516 177.924 114.252C181.23 115.988 183.793 118.179 185.612 120.824C187.43 123.387 188.34 126.693 188.34 130.744C188.34 136.283 187.265 141.036 185.116 145.004C183.049 148.972 180.238 152.196 176.684 154.676C173.129 157.156 169.12 159.016 164.656 160.256C160.274 161.413 155.686 161.992 150.892 161.992Z" fill="#111111"/>
<path d="M243.411 72.96H256.679L286.687 130.744L298.963 73.084H315.951L297.227 161H283.463L253.579 104.58L241.675 161H224.687L243.411 72.96Z" fill="#111111"/>
<path d="M334.353 72.96H391.393L388.293 87.964H348.117L343.653 109.168H378.249L375.273 123.056H340.677L335.841 145.996H377.009L373.785 161H315.629L334.353 72.96Z" fill="#111111"/>
<path d="M421.912 87.964H395.5L398.6 72.96H468.412L465.188 87.964H438.9L423.4 161H406.288L421.912 87.964Z" fill="#111111"/>
<path d="M494.002 162.364C490.447 162.364 487.264 161.909 484.454 161C481.643 160.091 479.163 158.727 477.014 156.908L483.71 143.02C484.536 143.764 486.148 144.673 488.546 145.748C491.026 146.74 493.919 147.236 497.226 147.236C500.367 147.236 503.012 146.616 505.162 145.376C507.394 144.136 509.254 142.317 510.742 139.92C512.23 137.44 513.511 134.381 514.586 130.744C515.66 127.024 516.735 122.684 517.81 117.724L527.358 73.084H544.47L534.922 117.724C533.516 124.42 531.863 130.496 529.962 135.952C528.06 141.408 525.663 146.12 522.77 150.088C519.876 154.056 516.074 157.115 511.362 159.264C506.732 161.331 500.946 162.364 494.002 162.364Z" fill="#111111"/>
<path d="M569.582 130L551.726 72.96H570.326L581.238 115.368L610.502 72.96H628.978L586.446 130.248L579.998 161H563.01L569.582 130Z" fill="#111111"/>
<path d="M496.805 178.894H501.463L499.015 190.352L510.745 178.86H515.981L504.931 189.57L511.391 203H506.087L501.361 192.562L497.859 195.792L496.329 203H491.671L496.805 178.894Z" fill="#111111"/>
<path d="M518.653 178.86H523.311L519.061 198.886H530.587L529.737 203H513.519L518.653 178.86Z" fill="#111111"/>
<path d="M536.368 194.5L531.472 178.86H536.572L539.564 190.488L547.588 178.86H552.654L540.992 194.568L539.224 203H534.566L536.368 194.5Z" fill="#111111"/>
<path d="M555.243 178.86H558.881L567.109 194.704L570.475 178.894H575.133L569.999 203H566.225L558.031 187.53L554.767 203H550.109L555.243 178.86Z" fill="#111111"/>
<path d="M584.53 182.974H577.288L578.138 178.86H597.28L596.396 182.974H589.188L584.938 203H580.246L584.53 182.974Z" fill="#111111"/>
<path d="M594.9 203.374C593.925 203.374 593.053 203.249 592.282 203C591.511 202.751 590.831 202.377 590.242 201.878L592.078 198.07C592.305 198.274 592.747 198.523 593.404 198.818C594.084 199.09 594.877 199.226 595.784 199.226C596.645 199.226 597.371 199.056 597.96 198.716C598.572 198.376 599.082 197.877 599.49 197.22C599.898 196.54 600.249 195.701 600.544 194.704C600.839 193.684 601.133 192.494 601.428 191.134L604.046 178.894H608.738L606.12 191.134C605.735 192.97 605.281 194.636 604.76 196.132C604.239 197.628 603.581 198.92 602.788 200.008C601.995 201.096 600.952 201.935 599.66 202.524C598.391 203.091 596.804 203.374 594.9 203.374Z" fill="#111111"/>
<path d="M613.448 178.894H618.106L612.972 203H608.314L613.448 178.894Z" fill="#111111"/>
<path d="M216.562 63.625C217.396 64.0833 218.25 64.75 219.125 65.625C220 66.5 220.875 67.5 221.75 68.625C222.667 69.7083 223.542 70.875 224.375 72.125C225.25 73.3333 226.083 74.5 226.875 75.625C227.667 76.75 228.396 77.7917 229.062 78.75C229.771 79.7083 230.354 80.4375 230.812 80.9375C230.771 81.0208 230.646 81.1875 230.437 81.4375C230.229 81.6875 229.979 81.9583 229.687 82.25C229.396 82.5 229.104 82.7708 228.812 83.0625C228.521 83.3542 228.292 83.5625 228.125 83.6875C228 83.6875 227.917 83.6875 227.875 83.6875C227.75 83.7292 227.625 83.75 227.5 83.75C227.333 83.75 227.187 83.7292 227.062 83.6875C226.937 83.6875 226.854 83.6875 226.812 83.6875C225.562 82.8542 224.604 81.875 223.937 80.75C223.271 79.5833 222.646 78.5 222.062 77.5C221.479 76.4583 220.812 75.5833 220.062 74.875C219.312 74.1667 218.25 73.8125 216.875 73.8125C216 75.9375 215.312 77.6667 214.812 79C214.312 80.3333 213.896 81.375 213.562 82.125C213.229 82.875 212.917 83.4167 212.625 83.75C212.333 84.0417 211.937 84.2083 211.437 84.25C210.979 84.2917 210.333 84.2708 209.5 84.1875C208.708 84.1042 207.646 84.0625 206.312 84.0625C206.312 83.2708 206.437 82.2708 206.687 81.0625C206.979 79.8542 207.354 78.5625 207.812 77.1875C208.312 75.8125 208.875 74.3958 209.5 72.9375C210.167 71.4792 210.875 70.125 211.625 68.875C212.375 67.625 213.167 66.5417 214 65.625C214.875 64.6667 215.729 64 216.562 63.625Z" fill="#D52F2F"/>
<path d="M154.736 51.2705C154.567 50.5934 154.334 49.6201 154.038 48.3506C153.784 47.0811 153.488 45.6846 153.149 44.1611C152.853 42.6377 152.557 41.0508 152.261 39.4004C151.965 37.7077 151.689 36.0785 151.436 34.5127C151.182 32.9046 150.97 31.4447 150.801 30.1328C150.674 28.7786 150.61 27.6784 150.61 26.832C150.61 26.4512 150.653 25.7952 150.737 24.8643C150.822 23.9333 150.949 22.96 151.118 21.9443C151.287 20.9287 151.436 19.9766 151.562 19.0879C151.732 18.1992 151.88 17.5856 152.007 17.2471C152.134 17.2048 152.345 17.1836 152.642 17.1836C152.98 17.1836 153.319 17.1624 153.657 17.1201C154.038 17.0778 154.377 17.0566 154.673 17.0566C155.011 17.0143 155.244 16.9932 155.371 16.9932C157.402 16.9932 159.328 17.3952 161.147 18.1992C162.967 19.0033 164.702 20.0189 166.353 21.2461C168.003 22.4733 169.611 23.8486 171.177 25.3721C172.742 26.8955 174.308 28.3766 175.874 29.8154C177.482 31.2542 179.111 32.5661 180.762 33.751C182.412 34.8936 184.168 35.7611 186.03 36.3535C186.03 36.1419 186.03 35.8245 186.03 35.4014C186.073 34.9359 186.094 34.4492 186.094 33.9414C186.094 33.4336 186.094 32.9681 186.094 32.5449C186.136 32.0794 186.157 31.7409 186.157 31.5293C186.157 28.8633 185.988 26.2607 185.649 23.7217C185.311 21.1826 184.93 18.6436 184.507 16.1045C184.084 13.5654 183.703 11.0264 183.364 8.4873C183.026 5.90592 182.856 3.26107 182.856 0.552734C183.153 0.552734 183.512 0.573893 183.936 0.616211C184.401 0.616211 184.867 0.679688 185.332 0.806641C185.798 0.891276 186.221 1.06055 186.602 1.31445C186.982 1.52604 187.236 1.86458 187.363 2.33008C187.533 5.37695 187.913 8.44499 188.506 11.5342C189.098 14.5811 189.712 17.6491 190.347 20.7383C190.981 23.7852 191.532 26.8532 191.997 29.9424C192.505 32.9893 192.759 36.015 192.759 39.0195C192.759 39.5697 192.738 40.1621 192.695 40.7969C192.695 41.4316 192.611 42.0452 192.441 42.6377C192.314 43.1878 192.082 43.6533 191.743 44.0342C191.405 44.415 190.897 44.6055 190.22 44.6055C188.019 44.6055 185.988 44.1188 184.126 43.1455C182.264 42.1299 180.444 40.8815 178.667 39.4004C176.932 37.9193 175.218 36.29 173.525 34.5127C171.875 32.7354 170.161 31.1061 168.384 29.625C166.649 28.1439 164.829 26.8955 162.925 25.8799C161.063 24.8643 159.053 24.3564 156.895 24.3564C156.895 26.7262 157.064 29.0114 157.402 31.2119C157.741 33.3701 158.101 35.5283 158.481 37.6865C158.905 39.8447 159.285 42.0029 159.624 44.1611C159.963 46.277 160.132 48.4352 160.132 50.6357C160.132 51.4398 159.836 51.9899 159.243 52.2861C158.693 52.5824 158.079 52.7305 157.402 52.7305C156.852 52.7305 156.323 52.6882 155.815 52.6035C155.35 52.4766 154.99 52.0322 154.736 51.2705Z" fill="#111111"/>
<path d="M194.155 36.3535C194.155 34.1953 194.43 32.016 194.98 29.8154C195.573 27.5726 196.377 25.4355 197.393 23.4043C198.451 21.373 199.72 19.4899 201.201 17.7549C202.682 15.9775 204.312 14.4541 206.089 13.1846C207.909 11.8727 209.876 10.8571 211.992 10.1377C214.108 9.37598 216.33 8.99512 218.657 8.99512C220.985 8.99512 222.995 9.46061 224.687 10.3916C226.423 11.2803 227.861 12.4863 229.004 14.0098C230.146 15.5332 230.993 17.2894 231.543 19.2783C232.093 21.2249 232.368 23.2139 232.368 25.2451C232.368 28.7998 231.839 32.3122 230.781 35.7822C229.723 39.21 228.158 42.2992 226.084 45.0498C224.01 47.7581 221.429 49.9587 218.34 51.6514C215.293 53.3018 211.781 54.127 207.803 54.127C205.433 54.127 203.381 53.598 201.645 52.54C199.953 51.4398 198.535 50.0433 197.393 48.3506C196.292 46.6156 195.467 44.7113 194.917 42.6377C194.409 40.5218 194.155 38.4271 194.155 36.3535ZM199.551 37.75C199.551 38.8926 199.741 40.0986 200.122 41.3682C200.503 42.6377 201.032 43.8014 201.709 44.8594C202.386 45.9173 203.232 46.806 204.248 47.5254C205.306 48.2448 206.491 48.6045 207.803 48.6045C210.638 48.6045 213.219 47.9697 215.547 46.7002C217.874 45.3883 219.884 43.7168 221.577 41.6855C223.27 39.612 224.582 37.3057 225.513 34.7666C226.444 32.2275 226.909 29.7096 226.909 27.2129C226.909 25.7741 226.867 24.293 226.782 22.7695C226.698 21.2461 226.423 19.8708 225.957 18.6436C225.492 17.374 224.751 16.3584 223.735 15.5967C222.762 14.7926 221.344 14.3906 219.482 14.3906C218.89 14.3906 218.086 14.4118 217.07 14.4541C216.097 14.4964 215.124 14.6234 214.15 14.835C213.177 15.0042 212.31 15.2793 211.548 15.6602C210.828 16.041 210.469 16.57 210.469 17.2471C210.469 17.3317 210.532 17.5221 210.659 17.8184C210.828 18.0723 210.998 18.3473 211.167 18.6436C211.336 18.9398 211.484 19.236 211.611 19.5322C211.738 19.7861 211.802 19.9554 211.802 20.04C211.802 20.1247 211.632 20.3574 211.294 20.7383C210.955 21.0768 210.68 21.2884 210.469 21.373C208.353 21.9232 206.576 22.6214 205.137 23.4678C203.74 24.2718 202.619 25.3298 201.772 26.6416C200.968 27.9535 200.397 29.5192 200.059 31.3389C199.72 33.1585 199.551 35.2956 199.551 37.75Z" fill="#111111"/>
<path d="M237.7 10.4551C238.377 10.9629 238.927 11.5977 239.351 12.3594C239.774 13.0788 240.112 13.8193 240.366 14.5811C240.409 16.1891 240.43 18.1146 240.43 20.3574C240.43 22.6003 240.514 24.9277 240.684 27.3398C240.853 29.752 241.17 32.1641 241.636 34.5762C242.101 36.946 242.821 39.083 243.794 40.9873C244.81 42.8916 246.143 44.4362 247.793 45.6211C249.486 46.7637 251.602 47.335 254.141 47.335C256.468 47.335 258.457 46.7848 260.107 45.6846C261.8 44.5843 263.197 43.1878 264.297 41.4951C265.439 39.8024 266.265 37.9193 266.772 35.8457C267.323 33.7298 267.598 31.6774 267.598 29.6885C267.598 25.8376 267.407 21.9232 267.026 17.9453C266.646 13.9251 265.947 10.0531 264.932 6.3291C265.228 5.56738 265.609 5.14421 266.074 5.05957C266.54 4.93262 267.048 4.86914 267.598 4.86914C268.698 4.86914 269.565 5.31348 270.2 6.20215C270.835 7.09082 271.3 8.2334 271.597 9.62988C271.935 10.984 272.126 12.4863 272.168 14.1367C272.253 15.7448 272.253 17.2894 272.168 18.7705C272.126 20.2093 272.041 21.5 271.914 22.6426C271.829 23.7428 271.787 24.4411 271.787 24.7373C271.787 26.9378 271.724 29.1807 271.597 31.4658C271.512 33.7087 271.258 35.8669 270.835 37.9404C270.454 40.014 269.862 41.9606 269.058 43.7803C268.296 45.5576 267.259 47.1234 265.947 48.4775C264.635 49.7894 263.006 50.8262 261.06 51.5879C259.113 52.3496 256.785 52.7305 254.077 52.7305C250.649 52.7305 247.835 52.0745 245.635 50.7627C243.434 49.4508 241.657 47.7158 240.303 45.5576C238.991 43.3571 237.996 40.8604 237.319 38.0674C236.685 35.2744 236.219 32.418 235.923 29.498C235.669 26.5781 235.479 23.7005 235.352 20.8652C235.267 18.0299 235.14 15.4697 234.971 13.1846L237.7 10.4551Z" fill="#111111"/>
</svg>
